<?xml version="1.0" encoding="UTF-8"?><svg id="Layer_1" xmlns="http://www.w3.org/2000/svg" viewBox="0 0 1366 401.8751"><defs><style>.cls-1{fill:#fff;}</style></defs><polygon class="cls-1" points="185.1977 188.7705 131.7485 188.7705 131.7485 131.5304 105.9763 131.5304 105.9763 270.3447 131.7485 270.3447 131.7485 212.5624 185.1977 212.5624 185.1977 270.3447 210.9746 270.3447 210.9746 131.5304 185.1977 131.5304 185.1977 188.7705"/><path class="cls-1" d="M610.0305,210.865c7.3931-8.1475,11.4622-19.6898,11.4622-32.5005,0-13.1124-3.9653-24.4143-11.4386-32.6561-5.7052-6.469-16.4412-14.178-35.2163-14.178h-42.138v138.8143h25.7769v-45.3253h11.7215l33.7688,45.3253h29.6762l-37.1071-49.7244c6.3935-2.829,10.8068-6.766,13.4943-9.7553ZM597.7055,178.3645c0,7.2375-1.787,12.8154-5.3562,16.6392-3.7579,4.2529-9.6516,6.4077-17.5115,6.4077h-16.3611v-46.0938h16.3611c7.9636,0,13.8574,2.0982,17.5587,6.2757,3.5221,3.7767,5.3091,9.4159,5.3091,16.7713Z"/><rect class="cls-1" x="690.3672" y="131.5304" width="25.7769" height="138.8143"/><polygon class="cls-1" points="791.148 131.5304 791.148 157.3026 843.079 157.3026 778.9409 270.3447 889.0456 270.3447 889.0456 244.5678 824.9121 244.5678 889.0456 131.5304 791.148 131.5304"/><polygon class="cls-1" points="950.2629 270.3447 1035.4488 270.3447 1035.4488 246.5575 976.0398 246.5575 976.0398 209.8513 1024.972 209.8513 1024.972 186.0641 976.0398 186.0641 976.0398 155.1384 1035.4488 155.1384 1035.4488 131.5304 950.2629 131.5304 950.2629 270.3447"/><polygon class="cls-1" points="1181.4229 218.4986 1116.1709 131.5304 1097.2743 131.5304 1097.2743 270.3447 1123.0512 270.3447 1123.0512 183.1879 1188.6345 270.3447 1207.379 270.3447 1207.379 131.5304 1181.4229 131.5304 1181.4229 218.4986"/><path class="cls-1" d="M456.1733,140.1323l-.0066.0175-17.0893,26.4658c5.228,10.3134,8.1927,21.968,8.1927,34.3218,0,41.9938-34.0429,76.0365-76.0367,76.0365-12.3377,0-23.9782-2.957-34.2815-8.1723l-26.4741,17.1106c17.1227,12.2646,38.0874,19.5072,60.7556,19.5072,57.7039,0,104.4822-46.7782,104.4822-104.482,0-22.6903-7.256-43.6735-19.5423-60.8052Z"/><path class="cls-1" d="M371.2336,253.261c25.7224,0,47.1073-18.5115,51.5963-42.936-8.141-1.7411-16.5802-2.6781-25.241-2.6781-26.0776,0-50.1946,8.3351-69.8889,22.4489,9.4282,13.9747,25.4072,23.1652,43.5335,23.1652Z"/><path class="cls-1" d="M397.0992,198.1045c9.1342,0,18.0315.9997,26.6119,2.8514,0-.0062.0005-.0122.0005-.0184,0-28.9828-23.4954-52.478-52.478-52.478s-52.478,23.4952-52.478,52.478c0,2.3811.1774,4.719.4861,7.0151-.0055.0041-.0102.0071-.0157.0113-13.2151,10.0363-19.482,17.9892-19.6808,18.2437-2.7973-7.9075-4.3482-16.4024-4.3482-25.27,0-41.9938,34.0425-76.0365,76.0363-76.0365,12.2972,0,23.9019,2.9371,34.18,8.1203l26.49-17.1196c-17.1071-12.2273-38.0392-19.446-60.67-19.446-57.7034,0-104.4817,46.7781-104.4817,104.4819,0,23.2254,7.5899,44.6692,20.4121,62.0126,4.9529-8.9417,10.9651-17.2098,17.8666-24.6461,0,0,10.3054-10.7536,18.2017-16.1599,20.7337-15.1051,46.2512-24.0395,73.8671-24.0395Z"/><path class="cls-1" d="M1229.0673,150.1104v-15.7107h-5.6274v-2.8693h14.512v2.8693h-5.6252v15.7107h-3.2594Z"/><path class="cls-1" d="M1256.7643,150.1104v-13.7884l-5.7113,13.7884h-1.3927l-5.6819-13.7884v13.7884h-3.2594v-18.58h4.5954l5.0422,12.229,5.0694-12.229h4.5977v18.58h-3.2594Z"/></svg>