<?xml version="1.0" encoding="UTF-8"?><svg id="Layer_1" xmlns="http://www.w3.org/2000/svg" viewBox="0 0 877.0592 474.0422"><defs><style>.cls-1{fill:#fff;}</style></defs><path class="cls-1" d="M496.6141,218.343c.0517-.0639.1061-.1257.1577-.1896.4284-.5259.8461-1.0572,1.2627-1.5891.3273-.4171.6437-.8413.9651-1.2624.241-.3171.5027-.6226.7396-.942.2402-.3234.4723-.6554.7084-.983.4459-.6146.8762-1.2376,1.3076-1.8603.1533-.219.3113-.4363.4625-.6564.0342-.0521.0724-.1017.1066-.1537.2807-.4141.5559-.8344.8328-1.253.1368-.2082.266-.4202.4016-.6288.2506-.3852.5147-.7647.7586-1.1529.126-.2007.2416-.4073.3665-.6085.0152-.0255.0322-.0497.0474-.0752.3577-.5761.7041-1.1567,1.0501-1.7369.0902-.1522.175-.3071.265-.4592.1172-.1993.2419-.3949.3571-.5954.0896-.1552.1704-.3144.259-.4701.1922-.3333.3911-.6636.5787-.9987.3241-.5813.6261-1.1689.9392-1.7534.1264-.2377.256-.4739.381-.7118.8084-1.5341,1.5912-3.0757,2.314-4.6346.5617-1.2302,1.1053-2.4679,1.6249-3.7132,1.4683-3.5177,2.7259-7.1052,3.8062-10.7371.0293-.0991.061-.1974.09-.2963.3376-1.147.651-2.2998.9494-3.4563.0628-.2416.1293-.4823.1899-.7249.2493-.9917.4766-1.9879.6966-2.9862.0674-.302.1467-.6017.2115-.9042.0496-.2331.0979-.4664.1461-.6996.003-.0146.0049-.0297.008-.0443.1694-.8281.3139-1.6608.4634-2.4923.0744-.4144.1616-.826.2312-1.2418.0193-.1108.0362-.2224.0545-.3338.0438-.2662.0864-.533.1287-.7991.0115-.0777.0253-.1546.0368-.2323.1611-1.0335.3038-2.0704.4351-3.1082.0028-.0235.0054-.0466.0082-.0701.0434-.3516.0808-.7032.1212-1.0548.0378-.3357.0806-.6702.1152-1.0057.0661-.6217.121-1.2445.1756-1.867.0175-.2055.0458-.4092.0619-.6149.0197-.2373.038-.4747.0551-.7126.0259-.3397.0352-.6813.0571-1.0216.0238-.3518.0541-.704.0737-1.0562.0295-.5321.0557-1.0638.0779-1.5962.0005-.0262.0006-.0519.0011-.078.0018-.0277.0041-.056.005-.0845.0173-.4608.0318-.9219.0431-1.3827.0091-.3469.0062-.6939.012-1.0405.006-.3578.0229-.7159.0247-1.074.0029-.2938.0036-.5886.0028-.8833,0-.1571-.0087-.3146-.0096-.4722-.0044-.6045-.0105-1.2088-.0257-1.8131-.0073-.34-.0234-.6802-.035-1.0205-.01-.3294-.0068-.6601-.021-.9899-.0039-.0976-.0078-.1951-.0117-.2926-.0058-.1136-.0239-.2251-.0298-.3384-.0428-.8814-.0913-1.7616-.1558-2.6408-.039-.5319-.0817-1.063-.1267-1.5931-.1089-1.2164-.2337-2.4303-.3826-3.6407-.035-.2921-.0714-.5842-.1096-.876-.1876-1.4213-.3971-2.8381-.6402-4.2493-.0168-.0966-.0328-.1925-.0496-.289-.1852-1.0553-.402-2.1038-.6191-3.1519-.0034-.0178-.005-.036-.0093-.0546-.0037-.0192-.0088-.0387-.0126-.0579-.1874-.8957-.3914-1.7861-.6007-2.6756-.1371-.5874-.2738-1.1734-.4196-1.7577-.1184-.4657-.2416-.9291-.3661-1.393-.2884-1.0884-.5918-2.1714-.9135-3.2508-.008-.0269-.0161-.0537-.0241-.0806-2.1019-7.0328-4.9123-13.8823-8.4731-20.4139l-.0273.0329c-2.1744-4.0081-4.5971-7.8986-7.2995-11.6261l-17.4114,27.378c1.4998,2.9294,2.8422,5.9677,3.996,9.1122l-.0258.031c1.4674,4.082,2.6109,8.3252,3.4145,12.7013.2677,1.5441.4956,3.0867.6696,4.6266.0049.0434.0096.087.0154.1312.0687.6167.1646,1.2354.221,1.8521.0942,1.0406.1545,2.0782.2078,3.115-.0001.0075.0007.0156.0015.0238.0739,1.62.0994,3.2307.0753,4.8335-.0002.0441-.0015.0876-.0027.131-.009.5987.0035,1.2007-.0166,1.7964-.0009.0503-.004.0998-.0058.1494-.0879,2.2965-.2867,4.5675-.5647,6.8168-.1197.8596-.2449,1.7166-.3859,2.5689-.0728.4509-.16.897-.2405,1.3461-.1291.701-.2316,1.4122-.3768,2.107-.1164.5616-.2827,1.1012-.4103,1.658-.1977.8602-.4059,1.7148-.6333,2.5651-.35,1.3336-.7386,2.6478-1.1556,3.9506-.152.4712-.3077.9395-.4699,1.4065-.0677.1983-.1345.3971-.1989.597-.1356.3419-.2722.6832-.3997,1.03-.3068.8271-.6224,1.6483-.9565,2.4625-.2856.7048-.6051,1.3883-.9115,2.0797-.1382.3012-.2686.6058-.4069.9072-.435.9447-.8569,1.8955-1.3275,2.819-.4778.9377-1.0018,1.8487-1.5162,2.7664-.2732.4854-.5521.9667-.8262,1.4514-.3522.5786-.7037,1.158-1.0632,1.7326-.2005.3196-.4083.6332-.6086.9525-.318.479-.6229.9661-.945,1.4427-.1909.2824-.3842.5622-.5721.8466-.4638.6488-.9331,1.2933-1.4086,1.9342-.128.1721-.2602.3402-.3872.5129-.5497.7156-1.0872,1.4402-1.656,2.1421-.0122.0165-.0251.0321-.0382.0478-.6354.7711-1.2874,1.5275-1.949,2.2771-.6668.7541-1.3319,1.5097-2.0272,2.2397-.8979.9369-1.8158,1.854-2.7562,2.7508-.3287.313-.6423.6424-.9774.9485-1.3214,1.2178-2.6952,2.3781-4.1009,3.5036-.0414.0333-.0822.0678-.1229.1021-.3635.289-.7387.5648-1.1077.8477-.7814.5997-1.5666,1.1948-2.372,1.765-.4762.3369-.966.6573-1.4505.9841-.8162.5503-1.6295,1.1043-2.4678,1.6245-1.2865.7943-2.596,1.556-3.9341,2.2808-.0512.0286-.1024.0574-.1546.0854-.8823.4763-1.788.9169-2.6914,1.3602-.6739.3226-1.3384.6594-2.0215.9694-.0544.0252-.1094.0493-.1637.0745-1.1977.5378-2.4105,1.0481-3.6408,1.5283-.4432.1676-.8792.3466-1.3244.5112-.4641.1727-.9339.3303-1.4.498-.9271.3166-1.8538.6345-2.7948.924-.1616.0501-.3239.0972-.4856.1474-.2828.0825-.5628.1708-.8475.252-.8669.2515-1.7453.473-2.6231.6975-.4673.1126-.9311.2356-1.401.344-.8454.1964-1.6933.3795-2.5451.5526-.4597.0907-.9235.1698-1.3838.2576-.5945.0993-1.1879.1992-1.7861.2902-.5247.0812-1.0564.1361-1.5824.2097-3.7981.5015-7.6778.6884-11.6104.6159-3.753-.0695-7.5333-.3544-11.3395-.986-.1973-.033-.3946-.068-.5911-.0982-4.1269-.7392-8.1427-1.7706-12.0155-3.1001l-.0299.025c-3.1614-1.1092-6.2186-2.4075-9.17-3.8659l-27.127,17.7999c3.7644,2.6482,7.6856,5.0203,11.7192,7.1422l-.0222.0193c.489.2575.9872.4949,1.4796.7446.2736.1385.5471.2771.8223.4137.9278.4603,1.8617.906,2.8007,1.3383.2427.1117.4854.2235.7284.333.965.4356,1.9353.8559,2.9112,1.262.2337.097.4685.1946.7033.2902.973.3969,1.9498.7782,2.9322,1.1455.2606.0976.5216.1945.7826.2898.9507.347,1.9054.6801,2.864.9993.1559.0518.3099.1113.4662.1626.1084.0359.2182.0627.3259.0976,3.3436,1.0855,6.7302,2.0061,10.1519,2.7568.1275.0275.2566.053.3854.0808.8026.1727,1.6045.3534,2.4103.5076.5998.1151,1.2047.1932,1.8059.2975.6355.1106,1.2712.2155,1.9085.3148,1.1155.1726,2.2326.3288,3.353.4662.3787.0468.7552.1147,1.1342.1574.5752.0644,1.1492.1412,1.7257.1968.093.0087.1863.0134.2803.0227.1709.0155.3428.0169.5151.0326,1.114.0977,2.2319.1488,3.3487.2122,1.591.0903,3.1808.1456,4.7728.1653,1.0175.0129,2.0351.0458,3.0533.0305.2884-.0052.5779-.01.8663-.0135.0292-.0004.0579-.0002.0871-.0006.2608-.0031.522-.0031.7827-.0116.0937-.0031.1866-.0107.2804-.0139.9964-.0347,1.986-.1307,2.9798-.1933.9103-.0572,1.8212-.097,2.7296-.1774,1.0499-.0935,2.0934-.2306,3.1398-.3546,1.0761-.1269,2.1528-.2418,3.2254-.4009.8624-.1293,1.7179-.2959,2.5774-.4454,1.2448-.2165,2.4908-.4271,3.7291-.6869.6836-.1444,1.3598-.32,2.0405-.4774,1.3966-.3223,2.7922-.647,4.1763-1.0254.5291-.1449,1.0506-.3154,1.5775-.4685,1.5144-.4384,3.0251-.8886,4.5212-1.3944.417-.1416.8272-.3042,1.2424-.4509,1.3114-.4609,2.6266-.908,3.921-1.4214.1435-.0574.2891-.1083.432-.1669.6454-.2591,1.2836-.5406,1.9246-.8127.6827-.2912,1.3664-.5744,2.045-.8808.2349-.1053.4657-.2203.7003-.327.4115-.1898.8175-.3985,1.2285-.5931.3166-.1505.6317-.3047.9475-.458,1.6033-.7825,3.1986-1.5938,4.7763-2.4624.1118-.0614.2278-.1131.3397-.1746.1344-.0758.2722-.1447.407-.2209.6073-.3393,1.2038-.7004,1.8048-1.0521.6395-.3762,1.2817-.7446,1.9151-1.1354.2196-.1344.4344-.2775.6526-.4138.4066-.255.8056-.5284,1.2096-.7894.2567-.1643.5164-.3177.7712-.4852.1355-.088.2606-.1855.3943-.275,1.5037-.9969,2.9925-2.0271,4.4576-3.109.1873-.1375.3667-.282.5523-.4211,1.2646-.9468,2.5119-1.9295,3.7452-2.941.3266-.2684.6546-.5349.9775-.8062.2771-.2327.5597-.4537.835-.6897.567-.4862,1.0939-1.0009,1.6476-1.4967.7233-.6467,1.45-1.2902,2.1522-1.9535.7853-.7413,1.5421-1.5013,2.2992-2.2617.4359-.4382.8962-.8582,1.3236-1.3026.2795-.2903.5518-.5903.8284-.8844.0083-.0081.0156-.017.023-.0258.4049-.4301.7965-.868,1.1934-1.3031.3284-.3601.6645-.7148.9862-1.0796.3315-.3747.6581-.7564.9863-1.1363.1704-.1994.334-.4033.5034-.6033.4086-.482.8157-.9641,1.2149-1.4513Z"/><path class="cls-1" d="M390.1656,198.762c1.445.7058,2.9102,1.36,4.4023,1.9289.0034.0013.0057.0023.008.0032,8.0174,3.0568,16.6541,4.1332,25.1408,3.1899.1073-.0121.2151-.0194.3217-.0325,1.545-.1811,3.0833-.4419,4.6131-.7581.1908-.0395.382-.0722.5727-.1133,1.4832-.3242,2.9547-.7218,4.4138-1.174.2062-.0635.4146-.1186.6189-.1853,1.507-.486,2.9959-1.0452,4.4649-1.67.12-.0511.2422-.0958.3626-.1474,4.8088-2.087,9.3936-4.9145,13.5815-8.5062,2.9934-2.5667,5.622-5.3978,7.9005-8.4216.1169-.1551.2335-.3098.3488-.4668,3.7834-5.134,6.5552-10.8173,8.2897-16.76.0575-.1988.1335-.3924.1885-.5918.4733-1.6935.8289-3.4118,1.1285-5.1394-37.1822-6.8978-69.7253.1977-96.8615,21.1032.3519.5118.6552,1.0509,1.0266,1.552.1706.2294.362.4485.5371.6762.5958.7772,1.1953,1.5518,1.8361,2.2988,1.0608,1.2334,2.1767,2.3859,3.321,3.4989.35.3406.7137.672,1.074,1.0039.8455.7784,1.7134,1.5188,2.5958,2.2327.4196.339.8287.6871,1.2599,1.0141,1.1944.9084,2.4141,1.7683,3.667,2.5645.2843.1804.5756.3433.8617.5179,1.2148.7397,2.4466,1.4426,3.7067,2.0786.2061.1046.4134.2023.6193.3035Z"/><path class="cls-1" d="M466.6213,141.6925c-.083-.4881-.1908-.972-.2878-1.4579-.1546-.8001-.3275-1.5982-.5199-2.3929-.183-.7459-.3804-1.489-.5941-2.2271-.1259-.4347-.2673-.8654-.4042-1.2979-.3504-1.1014-.7248-2.1941-1.1447-3.2723-.1449-.3717-.3037-.7395-.4569-1.1086-.4345-1.046-.8951-2.0825-1.3948-3.1012-.2236-.4524-.4653-.8976-.7013-1.3442-.4723-.8964-.961-1.7861-1.4849-2.6571-.3633-.6003-.7538-1.1879-1.1439-1.778-.4556-.6938-.9124-1.3863-1.4021-2.061-.5385-.7384-1.1173-1.4576-1.6998-2.176-.4127-.5099-.8145-1.0256-1.2464-1.5214-.865-.9905-1.7708-1.9227-2.6905-2.8346-.3165-.3133-.6087-.6449-.934-.9513-.9699-.9155-1.9867-1.7581-3.0089-2.5887-1.3748-1.1133-2.8087-2.174-4.3181-3.1657-.2278-.1498-.4418-.3233-.6714-.4691-.304-.1933-.6136-.3669-.9203-.5533-1.1731-.7132-2.3615-1.3897-3.5761-2.0056-.2668-.1357-.5344-.2632-.8021-.3941-1.3712-.6668-2.7598-1.2851-4.1739-1.8291-.063-.0247-.1247-.0528-.1878-.0773-4.8288-1.8361-9.8818-2.9591-14.9916-3.3529-.0115-.0008-.0236-.0027-.0353-.0032-1.6278-.1247-3.2616-.1653-4.8945-.1414-.1215.0018-.2432-.0016-.3642.0014-1.5121.0321-3.023.1431-4.5306.303-.2483.0264-.4968.044-.744.0746-1.3935.167-2.7805.4065-4.1611.684-.3435.0697-.6898.1281-1.0323.2039-1.3173.2908-2.6216.6501-3.9199,1.0422-.4141.1254-.8297.2452-1.2402.3808-1.2797.421-2.5453.8997-3.7988,1.4207-.3362.1394-.6738.2731-1.0078.419-1.3901.6121-2.7607,1.2847-4.1091,2.0219-.1444.0786-.2919.1519-.435.2326-3.0665,1.7144-6.0106,3.7508-8.7805,6.1255-2.3892,2.0485-4.532,4.2737-6.4673,6.6202-.1843.2252-.3747.4431-.557.6714-.7973,1.0004-1.5425,2.0295-2.2593,3.0736-.2406.3513-.4798.7045-.7141,1.0628-.3464.5314-.655,1.0812-.981,1.6229-.5262.8735-1.0426,1.7498-1.5144,2.6401-.3517.6692-.6716,1.3514-.9935,2.0323-.3366.7059-.6708,1.4125-.9736,2.1271-.3708.8821-.7056,1.7756-1.0273,2.6736-.1915.5296-.3861,1.0593-.5606,1.5922-.3351,1.0363-.6301,2.0829-.902,3.1346-.1108.4307-.2267.8604-.3275,1.2919-.2522,1.0937-.4619,2.1947-.6471,3.2992-.8833,5.3103-.9783,10.6806-.2752,15.9426.0248.1856.0306.374.0571.5594.0031.0237.0032.0473.0074.0715-7.4024,5.5716-14.1628,11.8723-20.1512,18.8097-1.0413-2.8233-1.9058-5.7459-2.6123-8.749-.066-.2822-.1544-.5538-.2165-.837-2.9246-13.1387-2.3427-26.2403,1.122-38.3287,2.7483-9.6626,7.3085-18.4999,13.2469-26.1823.1021-.1337.2005-.2702.3035-.4031.0798-.1014.165-.1984.2457-.2991l.0069.0044c.9287-1.1711,1.8859-2.3163,2.8723-3.4326.0474-.0515.0937-.1035.1411-.155.9031-1.0162,1.8352-2.0034,2.7908-2.9658.3968-.4039.8022-.8,1.2077-1.1961.368-.3511.7354-.7033,1.1089-1.0482,1.1585-1.0768,2.3504-2.1206,3.5764-3.1288.1319-.1111.2615-.2248.3959-.3335,1.2058-.9803,2.4555-1.9128,3.7241-2.8225.9781-.701,1.9904-1.3574,3.0027-2.0137.541-.3509,1.0701-.7167,1.6205-1.0552.912-.5595,1.8539-1.0747,2.7905-1.5979.716-.3988,1.4222-.8113,2.1528-1.1892,1.3871-.718,2.7958-1.4017,4.2329-2.0374.3798-.1681.7693-.3167,1.1519-.4791,1.2117-.5127,2.4361-1.0022,3.6809-1.4542.6348-.2317,1.272-.4574,1.9143-.6726.1135-.036.2255-.0739.3384-.111.4264-.1401.8524-.2798,1.2785-.4195.7068-.2197,1.4221-.4168,2.1367-.6167.6773-.1897,1.3528-.3828,2.0362-.5543.8634-.2162,1.7357-.4068,2.6094-.5935.5232-.1123,1.0436-.232,1.5701-.3336,1.0521-.2021,2.1138-.3738,3.179-.5332.363-.0548.724-.118,1.0885-.1673,1.2242-.1644,2.4569-.2951,3.6968-.4016.2232-.02.4458-.0466.67-.0642,1.3409-.1038,2.6906-.1688,4.0471-.2038.1442-.0036.2875-.0133.4315-.0166,1.3516-.0272,2.7123-.0105,4.0771.0321.1953.0062.3901.0039.5857.0117.4964.0186.9954.0523,1.4928.0769.8819.0517,1.7667.1238,2.6518.2064.8386.0783,1.6709.1732,2.4998.2796.7056.0884,1.412.1813,2.1191.2898,4.6797.7373,9.2084,1.8844,13.5656,3.3801l.0317-.0272c3.1622,1.1101,6.2183,2.4078,9.1687,3.8656l27.1277-17.7989c-3.7634-2.6476-7.6846-5.0197-11.719-7.1426l.0206-.0174c-.4467-.2353-.902-.4512-1.3513-.6797-.35-.1781-.7004-.3558-1.0513-.5291-.852-.4219-1.7078-.8299-2.5689-1.2281-.3227-.1489-.6457-.2974-.9695-.443-.8841-.3979-1.7729-.7827-2.6657-1.1555-.3178-.1328-.6362-.265-.9552-.3946-.8932-.3632-1.7898-.7131-2.6904-1.051-.3392-.1272-.6783-.2527-1.0186-.3767-.8733-.3177-1.7502-.6238-2.6295-.9178-.1959-.0658-.3892-.1402-.5849-.2043-.1623-.0532-.328-.0969-.4909-.1494-1.093-.353-2.1903-.6863-3.293-1.004-.2931-.084-.5859-.1721-.8797-.2534-1.3318-.3709-2.6695-.7183-4.0127-1.037-.0355-.0085-.0712-.0184-.1068-.0268-1.4914-.3524-2.9876-.6827-4.4914-.971-1.5866-.3038-3.1809-.5654-4.7785-.7956-.4061-.0633-.8121-.1302-1.2194-.1846-.1474-.0199-.2948-.0326-.4416-.0516-.3029-.0394-.6069-.05-.9094-.0862-1.9615-.2347-3.927-.4317-5.8978-.5584-.3084-.02-.6157-.0322-.9245-.0499-1.3033-.0729-2.6075-.1336-3.9129-.1602-.5311-.0097-1.0633-.0327-1.5945-.0351-.1484-.0006-.2972.0049-.4448.0052-.149.0002-.2975.0143-.4468.0149-.91.0039-1.818.0657-2.7274.0926-1.4684.0434-2.9374.0694-4.4001.1735-1.1743.0825-2.341.2343-3.5122.355-1.1854.1232-2.3731.2163-3.553.3785-1.5156.2079-3.0199.4935-4.5257.7663-.8222.1485-1.649.2624-2.4664.4307-1.8264.3734-3.6351.8296-5.4411,1.2988-.4884.127-.9843.2246-1.47.3594-1.9995.5486-3.9764,1.1796-5.9444,1.8455-.291.0979-.5872.1764-.8764.2775-1.9986.6954-3.9722,1.4703-5.9316,2.2865-.2593.1072-.5241.1973-.7823.3068-.1997.0849-.4055.1515-.6048.2377-.4061.1759-.8138.3429-1.2183.5243-.4694.21-.9327.4365-1.399.6538-.8467.3952-1.6927.7896-2.5332,1.2084-.1312.0665-.2612.1369-.3937.2031-2.0693,1.0451-4.1099,2.1835-6.1334,3.3744-.1743.1018-.3563.1873-.5291.291-.3799.2266-.7639.4436-1.141.6759-.4388.2682-.8693.552-1.3045.8268-.424.2687-.8435.5466-1.2666.8178-.0677.0449-.1385.0825-.2062.1273-.0575.0381-.1134.0779-.1709.116-.237.1552-.4781.3027-.7136.4616-.1228.0818-.2431.168-.3654.2512-.2162.1467-.4247.3115-.6397.4604-1.4494.9956-2.8763,2.0116-4.2615,3.065l-.038.0293c-1.5251,1.1614-2.9989,2.367-4.4456,3.5949-.1072.0923-.2205.1737-.3277.2662-.122.1047-.2383.2134-.3594.3188-.2753.2378-.5596.4682-.8322.7082-.1482.1325-.2927.2715-.441.4041-.1131.1013-.216.2103-.3282.3123-1.5796,1.4223-3.1062,2.8812-4.5803,4.3757-.2713.2732-.5433.5453-.8112.8235-.0439.0455-.0841.0937-.128.1392-1.1582,1.2042-2.2957,2.4219-3.3882,3.6675-.1308.1499-.2572.3055-.3862.4569-.1347.1547-.2531.3189-.3869.4742-.2465.2836-.496.5634-.7384.8529-.564.6743-1.0872,1.3744-1.6322,2.0606-.3821.4831-.7931.9496-1.1679,1.4367-.3501.4555-.7005.9095-1.0433,1.3727-.062.0819-.1158.1684-.1768.2509-.0609.0823-.1228.164-.1836.2463.0022.001.0051.0029.0082.0047-.9243,1.2608-1.8224,2.5357-2.6876,3.8277-.413.6169-.83,1.2295-1.2323,1.8574-1.0004,1.5658-1.9517,3.1548-2.8642,4.7611-.2954.5194-.5918,1.0382-.8775,1.5606-.9869,1.8071-1.9247,3.6354-2.8004,5.4877-.1228.2608-.2468.5212-.3682.7821-9.2093,19.9066-12.0504,42.187-8.283,63.6566.0117.068.0252.1358.0369.204.3969,2.2323.8722,4.4543,1.4106,6.6644.2045.8314.4115,1.6616.6347,2.4869.0324.1199.0646.24.0962.3591.7791,2.8391,1.6876,5.6431,2.6988,8.4131,2.3042,6.315,5.1912,12.4352,8.6673,18.2562-.0012.0032-.0031.0056-.0043.0088,1.4929,2.4977,3.0627,4.9359,4.7405,7.2843.0236.0337.0453.0679.0692.1012.1307.1824.2424.3769.3746.5594l.022-.0337c.3763.519.7672,1.0258,1.1538,1.5379,8.9728-16.4109,21.4497-30.8502,36.6908-42.1218.0019-.0022.0046-.0037.0072-.005,14.1152-10.4385,30.5701-18.1868,48.8103-22.2461q.0012.0004.0013.0003c18.2184-4.055,36.3853-4.0205,53.5775-.5652-.0271-2.779-.2575-5.5584-.7138-8.3125Z"/><polygon class="cls-1" points="137.0849 372.5145 100.6245 372.5145 100.6245 333.4682 83.044 333.4682 83.044 428.1604 100.6245 428.1604 100.6245 388.7442 137.0849 388.7442 137.0849 428.1604 154.6686 428.1604 154.6686 333.4682 137.0849 333.4682 137.0849 372.5145"/><path class="cls-1" d="M365.1555,387.5863c5.0432-5.5578,7.8189-13.4314,7.8189-22.1702,0-8.9446-2.7049-16.6542-7.8028-22.2764-3.8918-4.4128-11.2154-9.6715-24.0228-9.6715h-28.7444v94.6922h17.5837v-30.9187h7.9958l23.0354,30.9187h20.2436l-25.3126-33.9195c4.3614-1.9298,7.3718-4.6154,9.2052-6.6546ZM356.748,365.4161c0,4.9371-1.219,8.742-3.6538,11.3505-2.5634,2.9011-6.5838,4.371-11.9455,4.371h-11.1607v-31.4429h11.1607c5.4324,0,9.4528,1.4313,11.9776,4.2809,2.4026,2.5763,3.6216,6.423,3.6216,11.4405Z"/><rect class="cls-1" x="415.4886" y="333.4682" width="17.5837" height="94.6922"/><polygon class="cls-1" points="479.7677 333.4682 479.7677 351.0487 515.1924 351.0487 471.4406 428.1604 546.5485 428.1604 546.5485 410.5767 502.7999 410.5767 546.5485 333.4682 479.7677 333.4682"/><polygon class="cls-1" points="583.8393 428.1604 641.9489 428.1604 641.9489 411.934 601.423 411.934 601.423 386.8948 634.8022 386.8948 634.8022 370.6684 601.423 370.6684 601.423 349.5724 641.9489 349.5724 641.9489 333.4682 583.8393 333.4682 583.8393 428.1604"/><polygon class="cls-1" points="737.0566 392.7936 692.5449 333.4682 679.6546 333.4682 679.6546 428.1604 697.2383 428.1604 697.2383 368.7064 741.976 428.1604 754.7625 428.1604 754.7625 333.4682 737.0566 333.4682 737.0566 392.7936"/><path class="cls-1" d="M233.5015,430.5556c-9.5489,0-17.7279-2.087-24.5369-6.2669-6.809-4.1798-12.0382-10.0036-15.6875-17.4772-3.6493-7.4678-5.4682-16.1364-5.4682-25.9943,0-9.8637,1.8188-18.5266,5.4682-26.0001,3.6493-7.4736,8.8785-13.2974,15.6875-17.4772,6.809-4.1798,14.988-6.2669,24.5369-6.2669,9.5548,0,17.7454,2.087,24.5719,6.2669,6.8323,4.1798,12.0732,10.0036,15.7225,17.4772,3.6435,7.4736,5.4682,16.1364,5.4682,26.0001,0,9.8579-1.8247,18.5266-5.4682,25.9943-3.6493,7.4736-8.8902,13.2974-15.7225,17.4772-6.8265,4.1798-15.0171,6.2669-24.5719,6.2669ZM233.5034,413.5753c6.0561.0385,11.0992-1.2938,15.1293-4.008,4.0301-2.7142,7.0526-6.5351,9.0787-11.4626,2.026-4.9275,3.0391-10.6918,3.0391-17.2875,0-6.6012-1.013-12.3325-3.0391-17.1939-2.026-4.8669-5.0486-8.6547-9.0787-11.369s-9.0732-4.1127-15.1293-4.1952c-6.0561-.044-11.0827,1.2938-15.0962,4.008-4.008,2.7142-7.0251,6.5351-9.0511,11.4626-2.0205,4.9275-3.0336,10.6863-3.0336,17.2875,0,6.5957,1.002,12.3269,3.006,17.1939,2.004,4.8614,5.0211,8.6547,9.0511,11.369,4.0301,2.7142,9.0677,4.1127,15.1238,4.1952Z"/><path class="cls-1" d="M771.1645,347.1832v-11.597h-4.1539v-2.118h10.7121v2.118h-4.1523v11.597h-2.406Z"/><path class="cls-1" d="M791.6093,347.1832v-10.178l-4.2159,10.178h-1.028l-4.1941-10.178v10.178h-2.406v-13.715h3.3921l3.722,9.027,3.7421-9.027h3.3938v13.715h-2.406Z"/></svg>